<?xml version="1.0" encoding="UTF-8" standalone="no"?>
<!-- Generator: Adobe Illustrator 12.0.0, SVG Export Plug-In . SVG Version: 6.00 Build 51448)  -->

<svg
   xmlns:dc="http://purl.org/dc/elements/1.1/"
   xmlns:cc="http://creativecommons.org/ns#"
   xmlns:rdf="http://www.w3.org/1999/02/22-rdf-syntax-ns#"
   xmlns:svg="http://www.w3.org/2000/svg"
   xmlns="http://www.w3.org/2000/svg"
   xmlns:sodipodi="http://sodipodi.sourceforge.net/DTD/sodipodi-0.dtd"
   xmlns:inkscape="http://www.inkscape.org/namespaces/inkscape"
   version="1.0"
   id="Layer_1"
   sodipodi:modified="true"
   inkscape:version="0.91 r13725"
   sodipodi:version="0.32"
   sodipodi:docname="solder-polarity-simbol-v1.svg"
   inkscape:output_extension="org.inkscape.output.svg.inkscape"
   width="400.02679"
   height="477.806"
   viewBox="-3.033 -0.385 400.02679 477.806"
   overflow="visible"
   enable-background="new -3.033 -0.385 405 250"
   xml:space="preserve"
   style="overflow:visible"
   inkscape:export-filename="/home/saar/proj/solder-polarity-symbol/solder-polarity-simbol-v1.png"
   inkscape:export-xdpi="300"
   inkscape:export-ydpi="300"><metadata
     id="metadata3561"><rdf:RDF><cc:Work
         rdf:about=""><dc:format>image/svg+xml</dc:format><dc:type
           rdf:resource="http://purl.org/dc/dcmitype/StillImage" /><dc:title></dc:title></cc:Work></rdf:RDF></metadata><defs
     id="defs3559"><inkscape:perspective
       sodipodi:type="inkscape:persp3d"
       inkscape:vp_x="0 : 125 : 1"
       inkscape:vp_y="0 : 1000 : 0"
       inkscape:vp_z="405 : 125 : 1"
       inkscape:persp3d-origin="202.5 : 83.333333 : 1"
       id="perspective3563" /></defs><sodipodi:namedview
     height="250px"
     width="400px"
     id="base"
     objecttolerance="10.0"
     inkscape:pageopacity="0.0"
     inkscape:pageshadow="2"
     inkscape:window-height="1056"
     inkscape:window-width="1885"
     inkscape:current-layer="Layer_1"
     inkscape:window-x="35"
     inkscape:window-y="24"
     inkscape:cy="108.2002"
     inkscape:cx="112.67542"
     gridtolerance="10.0"
     borderopacity="1.0"
     guidetolerance="10.0"
     pagecolor="#ffffff"
     inkscape:zoom="1.5624608"
     bordercolor="#666666"
     showgrid="false"
     inkscape:window-maximized="1"
     fit-margin-top="25"
     fit-margin-right="25"
     fit-margin-bottom="25"
     fit-margin-left="25" /><text
     sodipodi:linespacing="120%"
     id="text4577-5"
     y="494.01193"
     x="-3.0028455"
     style="font-style:normal;font-variant:normal;font-weight:normal;font-stretch:normal;font-size:12.5px;line-height:120%;font-family:'Abyssinica SIL';-inkscape-font-specification:'Abyssinica SIL, Normal';text-align:start;letter-spacing:0px;word-spacing:0px;writing-mode:lr;text-anchor:start;overflow:visible;fill:#000000;fill-opacity:1;stroke:none;stroke-width:1px;stroke-linecap:butt;stroke-linejoin:miter;stroke-opacity:1;"
     xml:space="preserve"><tspan
       y="494.01193"
       x="-3.0028455"
       sodipodi:role="line"
       id="tspan4581-3">Created by Saar Drimer of Boldport, http://boldport.com</tspan><tspan
       y="506.51193"
       x="-3.0028455"
       sodipodi:role="line"
       id="tspan3382">Licensed under CC0 1.0 Universal </tspan></text>
<g
     id="g4295"><path
       style="fill:#000000;fill-opacity:1;fill-rule:evenodd;stroke:#000000;stroke-width:1.65157628;stroke-linecap:round;stroke-linejoin:round;stroke-miterlimit:4;stroke-dasharray:none;stroke-opacity:1"
       d="m 169.87592,48.69094 c -0.61773,0 -1.2341,0.12645 -1.7876,0.38311 -1.10701,0.51333 -1.78959,1.46352 -1.7893,2.49805 l -0.005,25.205256 c -6.65201,1.80057 -11.79072,8.54571 -12.74895,16.94099 l 32.66188,-0.002 c -0.95878,-8.39435 -6.09578,-15.13854 -12.74726,-16.93903 l -0.005,-25.205256 c 6.6e-4,-1.03453 -0.68229,-1.98472 -1.7893,-2.49805 -0.55351,-0.25666 -1.17157,-0.38311 -1.7893,-0.38311 z m -15.95442,53.00238 c 0.60372,2.82684 1.70626,5.4727 3.25296,7.73457 0.0634,0.82187 0.12447,1.65098 0.18317,2.48045 l 25.03659,-0.002 c 0.0581,-0.82479 0.11886,-1.64935 0.18147,-2.46677 1.54795,-2.26517 2.65039,-4.91624 3.25465,-7.74629 l -31.90884,0 z m 3.91441,18.52817 c 0.0803,1.94963 0.12719,3.77153 0.12719,5.36943 0,1.128 -0.0244,2.36876 -0.0661,3.68648 l 23.95792,-0.002 c -0.0419,-1.3171 -0.0644,-2.55697 -0.0644,-3.68452 0,-1.59778 0.0453,-3.41984 0.12551,-5.36944 l -24.08003,0 z m -0.35108,17.18922 c -0.0944,1.44408 -0.19863,2.90059 -0.30868,4.33542 -2.4572,3.59529 -3.79229,8.1612 -3.79229,12.87531 0,9.68561 5.52165,17.78507 12.91007,19.785 l 0.005,25.21308 c -1.1e-4,1.02666 0.68229,1.97495 1.7893,2.48828 1.10701,0.51333 2.46989,0.51333 3.5769,0 1.10701,-0.51333 1.79014,-1.46162 1.7893,-2.48828 l 0.005,-25.21308 c 7.38836,-2 12.90838,-10.09945 12.90838,-19.785 0,-4.71063 -1.33283,-9.27344 -3.7889,-12.86553 -0.1109,-1.43784 -0.21541,-2.89581 -0.31037,-4.34324 l -24.78388,-0.002 z"
       id="path4527"
       inkscape:connector-curvature="0" /><rect
       ry="9.2908611"
       y="25.975658"
       x="134.89877"
       height="199.23737"
       width="69.954109"
       id="rect4545"
       style="opacity:1;fill:none;fill-opacity:1;stroke:#000000;stroke-width:3.67095113;stroke-linecap:round;stroke-linejoin:round;stroke-miterlimit:4;stroke-dasharray:none;stroke-opacity:1" /></g><g
     id="g4289"><g
       transform="translate(-116.92992,-26.083713)"
       id="g4537"><circle
         style="opacity:1;fill:#000000;fill-opacity:1;stroke:none;stroke-width:1.77165353;stroke-linecap:round;stroke-linejoin:round;stroke-miterlimit:4;stroke-dasharray:none;stroke-opacity:1"
         id="path4529"
         cx="366.80576"
         cy="226.30035"
         r="13.350511" /><circle
         r="13.350511"
         cy="77.055763"
         cx="366.80576"
         id="circle4531"
         style="opacity:1;fill:#000000;fill-opacity:1;stroke:none;stroke-width:1.77165353;stroke-linecap:round;stroke-linejoin:round;stroke-miterlimit:4;stroke-dasharray:none;stroke-opacity:1" /></g><rect
       style="opacity:0.95;fill:none;fill-opacity:1;stroke:#000000;stroke-width:3.671;stroke-linecap:round;stroke-linejoin:round;stroke-miterlimit:4;stroke-dasharray:none;stroke-opacity:1"
       id="rect4549"
       width="69.954109"
       height="199.23737"
       x="214.89877"
       y="25.97566"
       ry="9.2908611" /></g><g
     id="g4299"><path
       inkscape:connector-curvature="0"
       id="path4522"
       d="m 169.73303,274.53826 c -0.61773,0 -1.2341,0.12645 -1.7876,0.38311 -1.10701,0.51333 -1.78959,1.46352 -1.7893,2.49805 l -0.005,25.20525 c -6.65201,1.80057 -11.79072,8.54571 -12.74895,16.94099 l 32.66188,-0.002 c -0.95878,-8.39435 -6.09578,-15.13854 -12.74726,-16.93903 l -0.005,-25.20525 c 6.6e-4,-1.03453 -0.68229,-1.98472 -1.7893,-2.49805 -0.55351,-0.25666 -1.17157,-0.38311 -1.7893,-0.38311 z m -15.95442,53.00238 c 0.60372,2.82684 1.70626,5.4727 3.25296,7.73457 0.0634,0.82187 0.12447,1.65098 0.18317,2.48045 l 25.03659,-0.002 c 0.0581,-0.82479 0.11886,-1.64935 0.18147,-2.46677 1.54795,-2.26517 2.65039,-4.91624 3.25465,-7.74629 l -31.90884,0 z m 3.91441,18.52817 c 0.0803,1.94963 0.12719,3.77153 0.12719,5.36943 0,1.128 -0.0244,2.36876 -0.0661,3.68648 l 23.95792,-0.002 c -0.0419,-1.3171 -0.0644,-2.55697 -0.0644,-3.68452 0,-1.59778 0.0453,-3.41984 0.12551,-5.36944 l -24.08003,0 z m -0.35108,17.18922 c -0.0944,1.44408 -0.19863,2.90059 -0.30868,4.33542 -2.4572,3.59529 -3.79229,8.1612 -3.79229,12.87531 0,9.68561 5.52165,17.78507 12.91007,19.785 l 0.005,25.21308 c -1.1e-4,1.02666 0.68229,1.97495 1.7893,2.48828 1.10701,0.51333 2.46989,0.51333 3.5769,0 1.10701,-0.51333 1.79014,-1.46162 1.7893,-2.48828 l 0.005,-25.21308 c 7.38836,-2 12.90838,-10.09945 12.90838,-19.785 0,-4.71063 -1.33283,-9.27344 -3.7889,-12.86553 -0.1109,-1.43784 -0.21541,-2.89581 -0.31037,-4.34324 l -24.78388,-0.002 z"
       style="fill:none;fill-rule:evenodd;stroke:#000000;stroke-width:3.671;stroke-linecap:round;stroke-linejoin:round;stroke-miterlimit:4;stroke-dasharray:none;stroke-opacity:1" /><rect
       style="opacity:1;fill:none;fill-opacity:1;stroke:#000000;stroke-width:3.671;stroke-linecap:round;stroke-linejoin:round;stroke-miterlimit:4;stroke-dasharray:none;stroke-opacity:1"
       id="rect4551"
       width="69.954109"
       height="199.23737"
       x="134.66896"
       y="251.82297"
       ry="9.2908611" /></g><g
     id="g4283"><g
       style="fill:none;stroke:#000000;stroke-width:3.671;stroke-miterlimit:4;stroke-dasharray:none;stroke-opacity:1"
       transform="translate(62.840247,199.7636)"
       id="g4541"><circle
         r="13.350511"
         cy="226.30035"
         cx="186.80576"
         id="circle4533"
         style="opacity:1;fill:none;fill-opacity:1;stroke:#000000;stroke-width:3.671;stroke-linecap:round;stroke-linejoin:round;stroke-miterlimit:4;stroke-dasharray:none;stroke-opacity:1" /><circle
         style="opacity:1;fill:none;fill-opacity:1;stroke:#000000;stroke-width:3.671;stroke-linecap:round;stroke-linejoin:round;stroke-miterlimit:4;stroke-dasharray:none;stroke-opacity:1"
         id="circle4535"
         cx="186.80576"
         cy="77.055763"
         r="13.350511" /></g><rect
       ry="9.2908611"
       y="251.82297"
       x="214.66895"
       height="199.23737"
       width="69.954109"
       id="rect4553"
       style="opacity:1;fill:none;fill-opacity:1;stroke:#000000;stroke-width:3.671;stroke-linecap:round;stroke-linejoin:round;stroke-miterlimit:4;stroke-dasharray:none;stroke-opacity:1" /></g><text
     sodipodi:linespacing="100%"
     id="text4559"
     y="123.52892"
     x="294.81485"
     style="font-style:normal;font-variant:normal;font-weight:normal;font-stretch:normal;font-size:15px;line-height:100%;font-family:'Abyssinica SIL';-inkscape-font-specification:'Abyssinica SIL, Normal';text-align:start;letter-spacing:0px;word-spacing:0px;writing-mode:lr-tb;text-anchor:start;opacity:0.95;fill:#000000;fill-opacity:1;stroke:none;stroke-width:1px;stroke-linecap:butt;stroke-linejoin:miter;stroke-opacity:1"
     xml:space="preserve"><tspan
       y="123.52892"
       x="294.81485"
       id="tspan4561"
       sodipodi:role="line">place on the</tspan><tspan
       y="138.5289"
       x="294.81485"
       sodipodi:role="line"
       id="tspan4563">solder side</tspan></text>
<text
     xml:space="preserve"
     style="font-style:normal;font-variant:normal;font-weight:normal;font-stretch:normal;font-size:15px;line-height:100%;font-family:'Abyssinica SIL';-inkscape-font-specification:'Abyssinica SIL, Normal';text-align:end;letter-spacing:0px;word-spacing:0px;writing-mode:lr-tb;text-anchor:end;fill:#000000;fill-opacity:1;stroke:none;stroke-width:1px;stroke-linecap:butt;stroke-linejoin:miter;stroke-opacity:1"
     x="120.06392"
     y="121.98717"
     id="text4565"
     sodipodi:linespacing="100%"><tspan
       sodipodi:role="line"
       id="tspan4567"
       x="120.06392"
       y="121.98717">place on the</tspan><tspan
       sodipodi:role="line"
       x="120.06392"
       y="136.98715"
       id="tspan3413">component side</tspan></text>
<text
     xml:space="preserve"
     style="font-style:normal;font-variant:normal;font-weight:normal;font-stretch:normal;font-size:15px;line-height:100%;font-family:'Abyssinica SIL';-inkscape-font-specification:'Abyssinica SIL, Normal';text-align:start;letter-spacing:0px;word-spacing:0px;writing-mode:lr-tb;text-anchor:start;opacity:0.95;fill:#000000;fill-opacity:1;stroke:none;stroke-width:1px;stroke-linecap:butt;stroke-linejoin:miter;stroke-opacity:1"
     x="294.81485"
     y="349.37622"
     id="text3415"
     sodipodi:linespacing="100%"><tspan
       sodipodi:role="line"
       id="tspan3417"
       x="294.81485"
       y="349.37622">place on the</tspan><tspan
       id="tspan3419"
       sodipodi:role="line"
       x="294.81485"
       y="364.37622">solder side</tspan></text>
<text
     sodipodi:linespacing="100%"
     id="text3421"
     y="347.83447"
     x="120.06392"
     style="font-style:normal;font-variant:normal;font-weight:normal;font-stretch:normal;font-size:15px;line-height:100%;font-family:'Abyssinica SIL';-inkscape-font-specification:'Abyssinica SIL, Normal';text-align:end;letter-spacing:0px;word-spacing:0px;writing-mode:lr-tb;text-anchor:end;fill:#000000;fill-opacity:1;stroke:none;stroke-width:1px;stroke-linecap:butt;stroke-linejoin:miter;stroke-opacity:1"
     xml:space="preserve"><tspan
       y="347.83447"
       x="120.06392"
       id="tspan3423"
       sodipodi:role="line">place on the</tspan><tspan
       id="tspan3427"
       y="362.83447"
       x="120.06392"
       sodipodi:role="line">component side</tspan></text>
</svg>